<?xml version="1.0" encoding="utf-8"?>
<!-- Generator: Adobe Illustrator 21.1.0, SVG Export Plug-In . SVG Version: 6.00 Build 0)  -->
<svg version="1.1" id="Слой_1" xmlns="http://www.w3.org/2000/svg" xmlns:xlink="http://www.w3.org/1999/xlink" x="0px" y="0px"
	 viewBox="0 0 300 300" style="enable-background:new 0 0 300 300;" xml:space="preserve">
<style type="text/css">
	.st0{fill:#FFFFFF;}
	.st1{fill:#3D3D3D;}
	.st2{fill:#76CACE;}
</style>
<ellipse class="st0" cx="149.167" cy="150.724" rx="144.833" ry="147.609"/>
<g>
	<path class="st1" d="M300,149.937C300,87.906,260.46,0.381,171.129,0.381c0.048-0.009,0.099-0.015,0.147-0.024
		c-9.867-0.801-34.119,0-40.662,0C46.125,0.357,0,80.907,0,149.937c0,58.86,38.898,149.583,130.614,149.583
		c6.543,0,36.27,1.08,42.642,0c-0.105-0.021-0.219-0.039-0.33-0.06C277.317,290.475,300,200.394,300,149.937z M123.531,13.665
		c-3.828,1.503-7.581,3.216-11.259,5.133l-11.832-1.224C107.889,15.471,115.608,14.136,123.531,13.665z M89.586,21.261l15.453,1.632
		c-2.997,1.842-5.931,3.831-8.796,5.955L77.682,26.82C81.543,24.738,85.515,22.881,89.586,21.261z M70.818,30.828l20.046,2.241
		c-2.625,2.178-5.187,4.479-7.68,6.897L61.38,37.437C64.431,35.082,69.804,31.701,70.818,30.828z M56.316,41.574l22.653,2.679
		c-1.137,1.209-2.262,2.43-3.363,3.69c-1.065,1.215-2.1,2.454-3.123,3.705l-23.814-2.916C51.132,46.233,53.685,43.842,56.316,41.574
		z M44.718,52.941l24.36,3.045c-1.728,2.298-3.384,4.656-4.974,7.056l-25.149-3.243C40.809,57.438,42.729,55.152,44.718,52.941z
		 M35.73,64.053l25.587,3.366c-1.836,3-3.561,6.075-5.178,9.213l-26.373-3.603C31.653,69.945,33.636,66.948,35.73,64.053z
		 M27.231,77.331l26.721,3.714c-1.572,3.318-3.033,6.702-4.365,10.146l-27.42-3.969C23.739,83.847,25.425,80.544,27.231,77.331z
		 M20.217,91.578l27.729,4.08c-1.038,2.949-1.989,5.94-2.847,8.967l-28.278-4.302C17.868,97.359,18.999,94.437,20.217,91.578z
		 M15.36,104.721l28.53,4.416c-0.753,2.988-1.425,6.009-2.007,9.063l-29.04-4.635C13.593,110.574,14.436,107.628,15.36,104.721z
		 M11.79,118.008l29.295,4.749c-0.489,3.03-0.894,6.087-1.209,9.168l-29.775-4.974C10.578,123.939,11.145,120.954,11.79,118.008z
		 M9.465,131.448l30.006,5.085c-0.24,3.222-0.384,6.468-0.435,9.732l-30.501-5.328C8.748,137.745,9.063,134.58,9.465,131.448z
		 M8.187,151.41c0-1.98,0.048-3.948,0.12-5.91l30.729,5.445c0.033,2.697,0.135,5.391,0.306,8.076l-31.131-5.646
		C8.202,152.721,8.187,152.067,8.187,151.41z M8.331,158.001l31.383,5.772c0.243,2.592,0.552,5.178,0.918,7.749L8.82,165.549
		C8.595,163.053,8.433,160.533,8.331,158.001z M9.327,170.247l32.064,6.102c0.597,3.432,1.308,6.843,2.127,10.233l-32.67-6.387
		C10.239,176.922,9.732,173.604,9.327,170.247z M11.832,185.001l32.958,6.525c0.837,3.039,1.77,6.06,2.787,9.057L14.058,193.8
		C13.233,190.905,12.489,187.974,11.832,185.001z M15.543,198.717l33.843,6.936c1.122,2.988,2.325,5.931,3.609,8.82l-34.389-7.191
		C17.505,204.474,16.479,201.621,15.543,198.717z M20.709,212.355l34.728,7.347c1.692,3.468,3.492,6.858,5.415,10.164l-35.412-7.662
		C23.751,219.006,22.173,215.715,20.709,212.355z M28.404,227.499l35.784,7.83c1.86,2.913,3.816,5.76,5.862,8.529l-36.426-8.106
		C31.797,233.076,30.057,230.325,28.404,227.499z M43.419,248.43c-2.004-2.295-3.939-4.665-5.799-7.11l36.897,8.304
		c0.693,0.849,1.392,1.689,2.103,2.523c1.413,1.659,2.853,3.273,4.317,4.842L43.419,248.43z M48.99,254.406l38.088,8.781
		c3.03,2.88,6.156,5.592,9.372,8.13l-38.997-9.111C54.528,259.746,51.705,257.145,48.99,254.406z M81.357,277.902
		c-5.196-2.571-10.203-5.541-14.994-8.868L105,277.509c3.963,2.634,8.046,5.031,12.24,7.17c0.801,0.408,1.611,0.804,2.415,1.188
		L81.357,277.902z M169.389,288.783c-72.21,0-119.532-69.951-119.532-138.846C49.857,81.045,93.276,23.718,150,12.93
		c6.312-1.203,19.536-2.643,30.609-1.221c60.669,6.591,108.315,66.063,108.315,138.228S238.464,288.783,169.389,288.783z
		 M173.064,30.651c-55.587,0-100.647,53.715-100.647,119.973s45.06,119.973,100.647,119.973
		c55.581,0,100.647-53.715,100.647-119.973C273.708,84.366,228.645,30.651,173.064,30.651z M173.064,262.119
		c-51.657,0-93.534-49.92-93.534-111.495s41.874-111.495,93.534-111.495c51.657,0,93.534,49.92,93.534,111.495
		S224.718,262.119,173.064,262.119z"/>
</g>
<g transform="translate(0,-796.36218)">
	<path class="st2" d="M180.435,879.685l-8.577,1.884v0.627h-0.105v13.179c-7.086,2.766-12.381,6.825-16.002,12.237
		c-3.561,5.43-5.334,11.799-5.334,18.93c0,4.359,0.63,7.848,1.884,10.668c1.248,2.814,2.877,5.226,4.917,7.008
		c2.028,1.677,4.263,2.946,6.798,3.87c2.607,0.894,5.16,1.716,7.74,2.406v39.222c-4.308,1.362-7.92,2.037-10.983,2.091
		c-2.994,0.027-5.439-0.144-7.218-0.732L150,1003c2.328,0.582,5.28,0.609,8.994,0.105c3.774-0.432,8.019-1.368,12.759-2.928v12.864
		l8.682-3.138v-0.627v-12.657c7.104-3.813,12.387-8.715,15.897-14.643c3.567-6.003,5.439-12.66,5.439-19.977
		c0-4.035-0.672-7.305-1.884-9.936c-1.212-2.64-2.88-4.83-4.917-6.486c-1.962-1.686-4.134-3.12-6.693-4.08
		c-2.574-1.059-5.241-1.83-7.845-2.616v-35.562c3.522-0.687,6.465-1.017,8.787-0.837c2.307,0.084,4.224,0.408,5.856,0.942
		l2.928-10.668c-2.112-0.621-4.404-0.93-7.113-0.942c-2.643-0.126-6.186,0.219-10.458,1.047v-12.657L180.435,879.685
		L180.435,879.685z M171.858,905.938v30.228c-2.646-1.044-5.061-2.511-7.008-4.08c-2.355-1.992-3.453-4.992-3.453-9.204
		c0-3.525,0.885-6.945,2.718-10.251C165.732,909.835,168.36,907.6,171.858,905.938z M180.435,952.795
		c1.071,0.345,2.166,0.639,3.138,1.047c1.587,0.663,3.021,1.542,4.185,2.616c1.158,1.068,2.061,2.376,2.718,3.975
		c0.741,1.569,1.047,3.579,1.047,5.856c0,4.932-1.182,9.18-3.66,12.759c-1.98,2.856-4.461,5.163-7.425,7.008v-33.261H180.435z"/>
</g>
</svg>
