<?xml version="1.0" encoding="utf-8"?>
<!-- Generator: Adobe Illustrator 21.1.0, SVG Export Plug-In . SVG Version: 6.00 Build 0)  -->
<svg version="1.1" id="Слой_1" xmlns="http://www.w3.org/2000/svg" xmlns:xlink="http://www.w3.org/1999/xlink" x="0px" y="0px"
	 viewBox="0 0 959 593" style="enable-background:new 0 0 959 593;" xml:space="preserve">
<style type="text/css">
	.st0{fill:#D3D3D3;}
</style>
<title>Blank US states map</title>
<path class="st0" d="M925.1,79.4l-1.9-2.1l-2.8,0.5l0.5,1.1l-0.2,0.5h-0.8l-2.9-2.3l-0.2-4.8l-0.8-1.9h-6l-9.1-29.9l-1.9-1l-6-2.4
	l-1.5-0.2l-1.8,1.8l-4,2.9v1l-0.8,0.8l-2.7-0.6l-1.3-2.3v-1.1l-1.3-0.2h-1.3l-2.1,4.2l-2.9,8.9l-1.8,4.8l0.2,4.8l0.2,1.5l-0.8,2.7
	l-0.8,1v6l1.9,2.4l-1.5,4l-2.6,4.7l-0.8,5.5v2.6l-1.5-0.4l-1.3,0.17l-1.7,0.23l-0.6,1.6l-0.6-0.5l-1-1l-1.5,1.9l-0.2,2.29
	l0.165,2.769L832,106.4l-8.4,2.4l-4.5,1.5l-3.2-0.2l-5.5,1.3l-3.1,1.2l-2.4,1.8l-2.1,2.4l-2.7,3.7l-2.9,4.5l-1.5,2.9l-0.6,0.8
	l-5.8,5.5l0.2,2.6l0.8,1.1l1.8,0.8h1.8v1.5l-1.1,2.1l0.3,1.5l1.5,2.1l-0.2,2.3l-1.9,1.1h-2.1l-1.6,1.9l-1.8,3.2l-2.1,1.8l-5.2,0.5
	l-2.6,1.1l-2.1,1.3l-1.6-0.2l-1.9-1.3l-6.3,0.2l-3.2,0.5l-4,1.3l-4.4,1.5l-2.9,1.8l1.9,6.1l1.8,0.2l1.3,3.1l0.2,1l-1.1,1l-2.1,2.7
	l-0.5,1.6l-1.9,1.8l-1.8,1.1l-1,1.6l-1.3,1.1l-1.6,1.2l-6.7,6.3l-1.3,0.5l-4.2,2.6l-7.1,4.3l-3.9,2.3l-3.4,3.7l-4,3.9l-3.2,0.8
	l-2.9,0.5l-5.5,2.6l-2.1,0.2l-3.4-3.1l-5.2,0.6l-2.6-1.5l-2.2-1.3l-1.1-1.4l0.2-1.5l2.1-3.7l2-1.7l-0.2-5.1l1.6-1.6l1.1-0.3l0.2-3.6
	l1.5-3l1.1,0.6l0.2,0.6l0.8,0.2l1.9-1l-0.4-9.1l-3.2-8.2l-2.3-9.1l-2.4-3.2l-2.6-1.8l-1.6,1.1l-3.9,1.8l-1.9,5l-2.7,3.7l-1.1,0.6
	l-1.5-0.6c0,0-2.6-1.5-2.4-2.1c0.2-0.6,0.5-5,0.5-5l3.4-1.3l0.8-3.4l0.6-2.6l2.4-1.6l-0.3-10l-1.6-2.3l-1.3-0.8l-0.8-2.1l0.8-0.8
	l1.6,0.3l0.2-1.6L676,131l-1.3-2.6h-2.6l-4.5-1.5l-5.5-3.4h-2.7l-0.6,0.6l-1-0.5l-3.1-2.3l-2.9,1.8l-2.9,2.3l0.3,3.6l1,0.3l2.1,0.5
	l0.5,0.8l-2.6,0.8l-2.6,0.3l-1.5,1.8l-0.3,2.1l0.3,1.6l0.3,5.5l-3.6,2.1l-0.6-0.2v-4.2l1.3-2.4l0.6-2.4l-0.8-0.8l-1.9,0.8l-1,4.2
	l-2.7,1.1l-1.8,1.9l-0.2,1l0.6,0.8l-0.6,2.6l-2.3,0.5v1.1l0.8,2.4l-1.1,6.1l-1.6,4l0.6,4.7l0.5,1.1l-0.8,2.4l-0.3,0.8l-0.3,2.7
	l3.6,6l2.9,6.5l1.5,4.8l-0.8,4.7l-1,6l-2.4,5.2l-0.3,2.7l-4.6,4.2l-2.5,1.8l-2.1,1.9l-1.1,0.3l-1.5-1l-4-0.9l-0.2-0.9l-0.8-2.6
	l-1.3-3.7l-1.6-1.8l-1.5-2.6l-0.4-5.5l0.2-3.9l-1.6-4.5l-0.6-6.1l-1.1-2.4l1-3.1l0.8-2.9l1.5-2.6l-0.6-3.4l-0.6-3.6l0.5-1.8l1.9-2.4
	l0.2-2.7l-0.8-1.3l0.6-2.6l0.5-3.2l2.7-5.7l2.9-6.8l0.2-2.3l-0.3-1l-0.8,0.5l-4.2,6.3l-2.7,4l-1.9,1.8l-0.8,2.3l-1.5,0.8l-1.1,1.9
	l-1.5-0.3l-0.2-1.8l1.3-2.4l2.1-4.7l1.8-1.6l1.1-2.3l3.6-7.8l1-4l1.9-4.4l0.8-0.2l1.1,1.6h0.6l4.5-2.4l1.5,1.6l0.5,0.2l1.3-1.1
	l1.1-3.1l2.4-0.8l7-0.6l1.9-2.6l5.2-0.2l5.8,1.3h1.8l3.2-1.5l2.3,0.2l2.1-0.6l3.7,0.5l0.8,0.3l1.3-0.3l-1.3-1l-1.3-0.6l-3.2-3.1v-7
	l-1.5-0.5l-1.1,1.1l-6.1,1.6l-1.9,0.5l-2.9-0.8l-0.5-0.3v-5.7l-1.5-0.2l-2.6,1.3l-4.5,1.9l-6.6,0.3l-3.4,1.1l-4,3.6l-1.6,1h-1.1
	l-1.3,0.8l-1.6-0.5l-1.6-1.3l-1.5,1l-3.9,0.2l-2.7-2.7l-1.5-3.1l-1.5-1.1l-3.2-1h-2.3l-1.3-1.3l-3.6,2.9l-1,1.1l-0.8-0.5l0.3-2.6
	l2.4-3.2l0.5-2.4l2.3-0.8l1.5-3.1l3.7-1l0.3-1l-1.1-1.1l-4.7,0.5l-4.4,2.4l-2.3,2.3l-1.3,1.8l-1.8,0.8l-1.9,2.9l-0.2,1.3l-4.4,2.1
	l-2.4,1.9l-6,1l-0.6,0.6v1l-3.6,2.3l-2.7,0.8l-0.7,0.5l-1.3,1.9l-1.1-0.2l-0.6-1.1l-2.7-0.8l-1.1,0.2l-1.8,1l-1-0.6l0.6-1.9l1.9-3.1
	l1.1-1.1l-1.9-1.5l-2.1,0.8l-2.9,1.9l-7.4,3.2l-2.9,0.6l-2.9-0.5l-1.8-1.3l3.8-2.9l1.3-0.2l4.5-5l1.8-0.8l2.3-3.9l2.4-3.6l3.1-2.6
	l4.8-2l9.2-4.1l3.9-1.8l0.6-2.3l-4.4,0.4l-0.7,1.1h-0.6l-1.8-3.1l-8.9,0.3l-1,0.8h-1l-0.5-1.3l-0.8-1.8l-2.6,0.5l-3.2,3.2l-1.6,0.8
	h-3.1l-2.6-1v-2.1l-1.3-0.2l-0.5,0.5l-2.6-1.3l-0.5-2.9l-1.5,0.5l-0.5,1l-2.4-0.5l-5.3-2.4l-3.9-2.6h-2.9l-1.3-1l-2.3,0.6l-1.1,1.1
	l-0.3,1.3h-4.8v-2.1l-6.3-0.3l-0.3-1.5h-4.8l-1.6-1.6l-1.5-6.1l-0.8-5.5l-1.9-0.8l-2.3-0.5l-0.6,0.2l-0.3,8.2l-30.1-0.03l-29.6-0.57
	l-18.6-0.6l-26.5-1.3l-25.2-2.16l-31.7-3.14L302,50l-29.3-4l-32.3-5.3L222,37.3l-32.7-6.89l-14-2.78l-16-3.73l-23-5.7l-20-5.7
	l-8.6-1.9L98,7.9l-4.4-1.5l-1.4,0.8L91.9,8l2.4,4.8l1.1,2.6L93.6,19v2.6l0.6,1.5l-0.8,1.8l0.5,3.2l1,1.3l-0.2,1.3l-1.5,0.2L92.6,29
	l-1.1-2.4l-1.8-1.5L90,23l2.3-0.5L92,20.7l-0.3-1.1l-2.1,1.3L88.3,22v2.4L86,24.6l-3.4-1l-2.9-1.5l-3.1-0.6l-4.5-2.1l-3.2-1.9
	l-2.7-2.6L63.8,12l-2.1-0.5l-2.3,9.4l1.8,3.2V32l-0.6,2.9l1.5,7.1l2.7,2.7l-4.4,0.6L60.2,49l2.6,1.1l-1.6,4l-2.7,0.3l-0.3,2.9
	l2.3,2.9l-2,2.5l-2.3,6.5l-3.2,10l-3.2,6.5l-5,14.1l-6.5,13.6L30.2,126l-1.9,2.9l-0.8,8.6l-1.3,6l2.71,3.5l-2.01,5.9l-0.2,7.4
	l-5.2,11.8l-3.1,2.6l-0.3,1.1l-1.8,0.8l-1.5,4.2L14,184l2.7,4.2l1.6,4.2l1.1,3.6l-0.3,6.5l-1.8,3.1l-0.6,5.8l-1,3.7l1.8,3.9l2.7,4.5
	l2.3,4.8l1.3,4l-0.3,3.2l-0.3,0.5v2.1l5.7,6.3l-0.5,2.4l-0.6,2.3l-0.6,1.9l0.2,8.2l2.1,3.7l1.9,2.6l2.7,0.5l1,2.7l-1.1,3.6l-2.1,1.6
	h-1.1l-0.8,3.9l0.5,2.9l3.2,4.4l1.6,5.3l1.5,4.7l1.3,3.1l3.4,5.8l1.5,2.6l0.5,2.9l1.6,1v2.4l-0.8,1.9l-1.8,7.1l-0.5,1.9l2.4,2.7
	l4.2,0.5l4.5,1.8l3.9,2.1h2.9l2.9,3.1l2.6,4.8l1.1,2.3l3.9,2.1l4.8,0.8l1.5,2.1l0.6,3.2l-1.5,0.6l0.3,1l3.2,0.8l2.7,0.2l2.9,4.7
	l3.9,4.2l0.8,2.3l2.6,4.2l0.3,3.2v9.4l0.5,1.8l10,1.5l19.7,2.7l12.6,6.3l18.9,10.7l12.1,7.6l14.7,8.6l16.8,10l12.3,2.4l25.4,2.7
	l16.8,2.2l1.2-9.6l16.7,2.6l12.2,1.5l2.7,0.6l2.6,2.9l1.5,4.4l4.7,2.3l1.3,3.2l7.1,7.9l1.3,1.6l5,2.1l1.1,2.1l1.6,1l0.5,2.7l3.2,6.5
	v8.1l2.3,4.7l7.4,7.8l5.2,2.1l1.8,1.9v0.6l3.9,2.3l1.9,0.6l1.8,1.1l2.6,1l2.4-2.4l4.4-6.1l1-3.7l2.3-3.2l3.6-1.5l4.5-1.8l3.1,2.3
	l7.4,0.6l6.8,1.1l2.6,2.1v1.1l2.6,3.1l6,5.3l0.2,1.5l1.8,1.9l0.8,4.2l5.3,12.3l-0.2,1.9l4.2,2.6l3.6,6.6l3.4,4.4l3.2,1.3l1.6,2.3
	l-1.3,4.4l0.6,1l1.3,0.6l-0.3,3.4l-0.6,0.6l0.6,2.3l3.2,1.9l1.3,6.5l2.1,3.9l7.6,3.4l5.2,1.1l4.2,3.1l3.2,0.6l1.3-0.5l5.5,1.1
	l5.7,3.9l3.1-1.9l1-1.5l-1.8-2.7l-1-6.1l-1.8-7l-0.8-2.4l0.8-4.5l1.1-3.9l1.3-4.5l1.5-5.5l-2.3-1.9l1-1.9l4-0.3l3.9-5.5l3.4-0.6
	l5.8-3.6l1.8-1.5l6.3-3.4l5.7-2.4l5.3-3.2l2.7-2.1l5.7-5.3l1.3-0.8l2.1-1.5l2.6-1.9l1-1.9l9.9-4.5l5.6-1.6l6.1-1.967l8.1-0.3
	l10.3,3.6l6.5,1.1l3.7-1.5l3.2,1.1l3.2,1l0.8-2.1l-3.2-1.1l-2.6,0.5l-2.7-1.6l0.8-1.5l3.1-1l1.8,1.5l1.8-1l3.2,0.6l1.5,2.4l0.3,2.3
	l4.5,0.3l1.8,1.8l-0.8,1.6l-1.3,0.8l1.6,1.6l8.4,3.6l3.6-1.3l1-2.4l2.6-0.6l1.8-1.5l1.3,1l0.8,2.9l-2.3,0.8l0.6,0.6l3.4-1.3l2.3-3.4
	l0.8-0.5l-2.1-0.3l0.8-1.6l-0.2-1.5l2.1-0.5l1.1-1.3l0.6,0.8l0.6,3.1l4.2,0.6l4,1.9l1,1.5h2.9l1.1,1l2.3-3.1v-1.5h-1.3l-3.4-2.7
	l-5.8-0.8l-3.2-2.3l1.1-2.7l2.3,0.3l0.2-0.6l-1.8-1v-0.5h3.2l1.8-3.1l-1.3-1.9l-0.3-2.7l-1.5,0.2l-1.9,2.1l-0.6,2.6l-3.1-0.6l-1-1.8
	l1.8-1.9l2.3-2.133l1.1-0.8l2.6-4.2l1.8,0.8l6.8-1.9l2.1,0.3l1.5,0.8h5.2l4.2-1.9l0.6,0.2l1.3-2.7l1.5-4.4l2.3,0.6l3.1,6v1l-2.7,1.9
	l2.7,0.3l5.2-2.5l4.3-0.4l6-2.1l6-0.5l4.4-0.6l7.6,1.8l8.1,3.9l1.6,1.5l2.9,1.1l1.6,1.9l0.3,2.7l3.2-1.3h3.9l3.6-1.9l3.7-3.6
	l3.1,0.2l0.5-1.1l-0.8-1l0.2-1.9l4-0.8h2.6l2.9,1.5l4.2,1.5l2.4,3.7l2.7,1l1.1,3.4l3.4,1.6l1.6,2.6l1.9,0.6l5.2,1.3l1.3,3.1l3,3.7
	v9.5l-1.5,4.7l0.3,2.7l1.3,4.8l1.8,4l0.8-0.5l1.5-4.5l-2.6-1l-0.3-0.6l1.6-0.6l4.5,1l0.2,1.6l-3.2,5.5l-2.1,2.4l3.6,3.7l2.6,3.1
	l2.9,5.3l2.9,3.9l2.1,5l1.8,0.3l1.6-2.1l1.8,1.1l2.6,4l0.6,3.6l3.1,4.4l0.8-1.3l3.9,0.3l3.6,2.3l3.4,5.2l0.8,3.4l0.3,2.9l1.1,1
	l1.3,0.5l2.4-1l1.5-1.6l3.9-0.2l3.1-1.5l2.7-3.2l-0.5-1.9l-0.3-2.4l0.6-1.9l-0.3-1.9l2.4-1.3l0.3-3.4l-0.6-1.8l-0.5-12l-1.3-7.6
	l-4.5-8.2l-3.6-5.8l-2.6-5.3l-2.9-2.9L779,493l0.7-1.4l1.1-1.3l-1.6-2.9l-4-3.7l-4.8-5.5l-3.7-6.3l-5.3-9.4l-3.7-9.7l-2.3-7.3
	l-0.9-7.3l2.3-10l1.5-4.2l-0.5-2.6l3.3-6.2l2.4-4.1l5-5.3l-1-3.2l2.9-0.2l3.6-3.4l1.6-0.8l2.3-3.4l2.7-2.7l2.1-3.6l2.4-0.6l1.1-2.7
	l1.6-0.8l0.5-6.3l2.6-6.1l5.3-5.4l5.8-2.1l4.7-0.5l0.5-2.4l1.9-6.5l3.4-4.7l6.5-5.3l5.2-2.4l2.7-0.6l1.1,0.5h1.3l3.1-4.8l1.9-3.6
	l-1.3,0.5l-2.3,2.3l-0.6-1.6h-4.2l1.9-6.3l-0.8-1.3h-1.9v-1l-0.3-1.3l1.6,1.3l1.5,0.2l2.4,0.3l3.7-1.6l1.3-2.9l0.6-2.1l2.6-1.3
	l0.3-4.2l-0.8-0.6l2.4-0.2l-0.6-2.3l-2.4-2.4l-3.6-6.5l-2-4.8l-4.2-7.1l-5.8,1.7l-1.6-1.5l2.6-1.4l-0.5-2.5l-1.8-1.8l-0.1-1.4
	l-2.3-1.5l-0.1-1.6l2.7,0.1l0.2-1.4l-1.2-0.8l0.5-1.9l-1.4-1.1l0.4-4.7l-0.9-1.2l-3.2-0.4l-2.2-2.1l2.8-3.2l-1.5-2.1v-1.8l-2.4-2.1
	l-2.1-5.5l1.3-5.3l-0.2-2.1l-1.3-1.3c0,0,1.5-1.6,1.5-2.3c0-0.6,0.5-2.1,0.5-2.1l1.9-1.3l1.9-1.6l0.5,1l-1.5,1.6l-1.3,3.7l0.3,1.1
	l1.8,0.3l0.5,5.5l-2.1,1l0.3,3.6l0.5-0.2l1.1-1.9l1.6,1.8l-1.6,1.3l-0.3,3.4l2.6,3.4l3.9,0.5l1.6-0.8l3.2,4.2l2.4,0.9l0.1,1.7
	l-0.7,3.3l-1.6,4.2l-0.4,5.4l1.5,4.6l2.2-1.9l1.8-5l-0.5-3.4l0.4-4.6l2.9-3.8l0.2-2.8l1.8-4.9l0.5-4.8l-2.6-8.3l-1,0.5l-3.6-2.4
	l-1.8-4.7l-1.9-3.6l-2.3-1l-2.1-3.6l0.5-2l0.5-2.3l1.1-1.3l-0.1,1.5l-0.7,2.6l1,2l3.2,2.9l4.8,2.3l4,0.6l0.2,1.5l-0.8,1l0.3,2.7h0.8
	l2.1-2.4l0.8-4.8l2.7-4l3.1-6.5l1.1-5.5l-0.6-1.1l-0.2-9.4l-1.6-3.4l-1.1,0.8l-2.7,0.3l-0.5-0.5l1.1-1l3-2.6l1,0.4l4-1.1l5.8-1.9
	l2.6-1l7.1-5.3l3.9-2.9l3.4-3.6l-4.2-1.6l-1.3,1.5l-2.9,2.7l-7.9,3.9l-2.3-0.2l-1.6-0.6l-1.1,0.6l-2.3,2.6l-1.5,1.3l-1.3,0.3
	l-0.3-1.3l1.9-1.8l5.3-4.9l3.6-3.2l1.9-2.1l0.8,0.6l2.7-1.5l5.2-1.1l7-3.5l3.8-1.4l2.4-1.9l1.1-1.8l1.3,0.2l2.8-1.4l2.9-1.3
	l-0.5-2.3l0.8-1.5l2.9-1.5l0.8,3.1l-0.5,1.8l-2.4,1.5v1l1.9-1.5l3.9-4.5l3.9-1.9l4.2-1.5l-0.3-2.4l-1-2.9l-1.9-2.4l-1.8-0.8
	l-2.1,0.2l-0.5,0.5l1,1.3l1.5-0.8l2.1,1.6l0.8,2.7l-1.8,1.8l-2.3,1l-3.6-0.5l-3.9-6l-2.3-2.6h-1.8l-1.1,0.8l-1.9-2.6l0.3-1.5
	l2.4-5.2l-3.3-5.3l0.7-0.8l1.1-3.2l1.4-7.3l0.2-4.4l1.5-1.3l-1-3.2l3.1-3.6l1.6,1.5l1.3-0.5l5.3-3.1l0.3-2.9l2.9-0.5l1.6-2.6
	l-0.2-1.6l-0.3-3.1l0.8-1.3l-0.3-1.1l-1.3-1.5l2.1-1.3l1.8,3.2l1.5-0.3l0.3,1.3v1.6l1.9,0.2l0.5-2.7l0.5-0.6l-1.6-1.5l1-1.5l2.4-1.5
	l1-1.5l1.8-0.2c0,0,0.4,2.1,1,2.1c0.7,0,1.3,0,1.3,0l4.8-5.5l3.4-3.1l1.9-0.6l2.1-4.7v-1.9L925.1,79.4z"/>
</svg>
